<?xml version="1.0" encoding="utf-8"?>
<!-- Generator: Adobe Illustrator 26.2.1, SVG Export Plug-In . SVG Version: 6.00 Build 0)  -->
<svg version="1.1" id="Calque_1" xmlns="http://www.w3.org/2000/svg" xmlns:xlink="http://www.w3.org/1999/xlink" x="0px" y="0px"
	 viewBox="0 0 889.1 459.4" style="enable-background:new 0 0 889.1 459.4;" xml:space="preserve">
<style type="text/css">
	.st0{fill:#E6E6E6;}
	.st1{opacity:0.2;enable-background:new    ;}
	.st2{fill:#3F3D56;}
	.st3{fill:#FF6584;}
	.st4{fill:#DC3545;}
	.st5{fill:#0D6EFD;}
	.st6{fill:#F50054;}
</style>
<ellipse class="st0" cx="444.5" cy="398.2" rx="444.5" ry="12.4"/>
<path d="M681.4,263.4c-0.6,0-1.1,0-1.7,0s-1.1,0-1.7,0c-29.8-0.7-51.3-19.3-45.8-38.8l13.4-47.6l3.4-12l60,1l3.6,11.8l14.3,46.4
	C733,243.8,711.5,262.8,681.4,263.4z"/>
<path class="st1" d="M712.6,177.8c-20.8,11.9-46.5,11.6-67-0.8l3.4-12l60,1L712.6,177.8z"/>
<path d="M710.1,226.2c2.6-9.7,11.1-23.6,35-40.4c41.6-29.3,16.8-51.3,15.7-52.2c-2.3-1.9-1.9-4.1,0.8-4.8c3.2-0.6,6.5,0.1,9,2.1
	c1.3,1.1,32.5,27.7-14.5,60.7c-42.3,29.7-33.3,49.2-33.2,49.4c1.1,2.1-0.7,3.7-4.1,3.7s-7-1.7-8.2-3.8
	C710.4,240.5,707.7,235.2,710.1,226.2z"/>
<path d="M652.1,270.4c-3.8,0-6.9-3.1-6.9-6.9c0,0,0,0,0,0v-30c0-3.8,3.1-6.9,6.9-6.9c3.8,0,6.9,3.1,6.9,6.9v30
	C659,267.3,655.9,270.4,652.1,270.4C652.1,270.4,652.1,270.4,652.1,270.4z"/>
<path d="M658.1,199.2c-1.6,3.5-5.7,5-9.2,3.4c0,0,0,0,0,0L621.7,190c-3.5-1.6-5-5.7-3.4-9.2c1.6-3.5,5.7-5,9.2-3.4l27.2,12.5
	C658.2,191.6,659.7,195.7,658.1,199.2C658.1,199.2,658.1,199.2,658.1,199.2z"/>
<path d="M701.4,199.2c1.6,3.5,5.7,5,9.2,3.4c0,0,0,0,0,0l27.2-12.5c3.5-1.6,5-5.7,3.4-9.2c-1.6-3.5-5.7-5-9.2-3.4L704.8,190
	C701.3,191.6,699.8,195.7,701.4,199.2C701.4,199.2,701.4,199.2,701.4,199.2z"/>
<path d="M707.4,270.4c3.8,0,6.9-3.1,6.9-6.9c0,0,0,0,0,0v-30c0-3.8-3.1-6.9-6.9-6.9c-3.8,0-6.9,3.1-6.9,6.9c0,0,0,0,0,0v30
	C700.5,267.3,703.6,270.4,707.4,270.4C707.4,270.4,707.4,270.4,707.4,270.4z"/>
<path d="M736.4,76.2c1.2-1.5,1.7-3.5,1.4-5.4L734,48.7l-3.8-22.2c-0.6-3.8-4.2-6.3-8-5.7c-1.2,0.2-2.3,0.7-3.3,1.5l-17.3,14.3
	l-10.4,8.6c-7-1.2-14.1-1.3-21-0.3l-10-8.3l-17.3-14.3c-2.9-2.4-7.3-2-9.7,0.9c-0.8,0.9-1.3,2.1-1.5,3.3l-3.8,22.2l-3.8,22.2
	c-0.2,1.2-0.1,2.4,0.3,3.5c-20,30.6-11.3,71.6,19.3,91.5c30.6,20,71.6,11.3,91.5-19.3C749,125.3,749.5,98,736.4,76.2z"/>
<path class="st0" d="M641.1,31.4c-0.4,0-0.8,0.1-1.2,0.2c-1.2,0.4-2,1.4-2.2,2.6l-4.6,26.9c-0.3,1.9,0.9,3.6,2.8,3.9
	c0.6,0.1,1.2,0,1.8-0.2l25.6-9.5c1.8-0.7,2.7-2.6,2-4.4c-0.2-0.6-0.6-1.1-1-1.4l0,0l-21-17.4C642.7,31.7,641.9,31.4,641.1,31.4z"/>
<path class="st0" d="M720.7,31.4c-0.8,0-1.6,0.3-2.2,0.8l-21,17.4c-1.5,1.2-1.7,3.4-0.5,4.8c0.4,0.5,0.9,0.8,1.4,1l25.6,9.5
	c1.8,0.7,3.7-0.2,4.4-2c0.2-0.6,0.3-1.2,0.2-1.8l-4.6-26.9c-0.2-1.2-1-2.2-2.2-2.6C721.5,31.5,721.1,31.4,720.7,31.4z"/>
<circle class="st0" cx="679.8" cy="119.7" r="9.2"/>
<ellipse class="st2" cx="679.8" cy="115" rx="6.2" ry="2.3"/>
<path class="st3" d="M675.1,125h8.5l0,0v10.4c0,2.3-1.9,4.2-4.2,4.2l0,0c-2.3,0-4.2-1.9-4.2-4.2V125L675.1,125z"/>
<path class="st2" d="M680.3,20.4c-0.4,0.9-0.9,1.8-1.3,2.8c-4.8,11.1-6.4,23.4-4.7,35.3c0.9-1.3,1.8-2.6,2.7-3.9
	C675.1,43.1,676.2,31.3,680.3,20.4z"/>
<path class="st2" d="M687.2,28.8c-0.4,0.9-0.9,1.8-1.3,2.8c-4.8,11.1-6.4,23.4-4.7,35.3c0.9-1.3,1.8-2.6,2.7-3.9
	C682,51.6,683.1,39.8,687.2,28.8z"/>
<path class="st4" d="M708.5,194.9l-1-12.4l-1-12.4c-0.2-2.1-2-3.7-4.1-3.5c-0.7,0.1-1.3,0.3-1.9,0.7l-10.2,7l-7.5,5.1
	c-1.8-2.1-5-2.4-7.2-0.6c-0.2,0.2-0.4,0.4-0.6,0.6l-7.5-5.1l-10.2-7c-1.7-1.2-4.1-0.8-5.3,1c-0.4,0.6-0.6,1.2-0.7,1.9l-1,12.4
	l-1,12.4c-0.2,2.1,1.4,3.9,3.5,4.1c0.7,0.1,1.3-0.1,1.9-0.4l11.2-5.4l9.2-4.4c2,2,5.2,2,7.2,0c0,0,0,0,0,0l9.2,4.4l11.2,5.4
	c1.9,0.9,4.2,0.1,5.1-1.8C708.5,196.2,708.6,195.6,708.5,194.9z"/>
<circle class="st0" cx="667.5" cy="109.7" r="2.3"/>
<circle class="st0" cx="692.1" cy="109.7" r="2.3"/>
<path class="st5" d="M233.4,243.1c0.6,0,1.1,0,1.7,0s1.1,0,1.7,0c29.8-0.7,51.3-19.3,45.8-38.8l-13.4-47.6l-3.4-12l-60,1l-3.6,11.8
	l-14.3,46.4C181.8,223.4,203.4,242.4,233.4,243.1z"/>
<path class="st1" d="M202.3,157.4c20.8,11.9,46.5,11.6,67-0.8l-3.4-12l-60,1L202.3,157.4z"/>
<path class="st5" d="M197.5,200.2c-6.5-7.6-20.1-16.6-48.9-21.5c-50.2-8.7-37.1-39.1-36.5-40.4c1.2-2.7,0-4.5-2.8-4
	c-3.1,0.8-5.8,2.9-7.3,5.8c-0.7,1.6-17.5,38.9,39.1,48.7c51,8.8,51.1,30.2,51.1,30.4c-0.1,2.4,2.2,3.1,5.3,1.6s5.6-4.6,5.8-6.9
	C203.3,213.2,203.5,207.3,197.5,200.2z"/>
<path class="st5" d="M262.8,250c3.8,0,6.9-3.1,6.9-6.9c0,0,0,0,0,0v-30c0-3.8-3.1-6.9-6.9-6.9c-3.8,0-6.9,3.1-6.9,6.9v30
	C255.9,246.9,259,250,262.8,250C262.8,250,262.8,250,262.8,250z"/>
<path class="st5" d="M256.7,178.8c1.6,3.5,5.7,5,9.2,3.4c0,0,0,0,0,0l27.2-12.5c3.5-1.6,5-5.7,3.4-9.2c-1.6-3.5-5.7-5-9.2-3.4
	c0,0,0,0,0,0l-27.2,12.5C256.7,171.2,255.1,175.3,256.7,178.8C256.7,178.8,256.7,178.8,256.7,178.8z"/>
<path class="st5" d="M213.5,178.8c-1.6,3.5-5.7,5-9.2,3.4c0,0,0,0,0,0l-27.2-12.5c-3.5-1.6-5-5.7-3.4-9.2c1.6-3.5,5.7-5,9.2-3.4
	c0,0,0,0,0,0l27.2,12.5C213.6,171.2,215.1,175.3,213.5,178.8C213.5,178.8,213.5,178.8,213.5,178.8z"/>
<path class="st5" d="M207.4,250c-3.8,0-6.9-3.1-6.9-6.9c0,0,0,0,0,0v-30c0-3.8,3.1-6.9,6.9-6.9c3.8,0,6.9,3.1,6.9,6.9v30
	C214.4,246.9,211.3,250,207.4,250C207.4,250,207.4,250,207.4,250z"/>
<path class="st5" d="M290.5,53.9c0.4-1.1,0.5-2.3,0.3-3.5L287,28.3l-3.8-22.2c-0.6-3.8-4.2-6.3-8-5.7C274.1,0.7,273,1.2,272,2
	l-17.3,14.3l-10,8.3c-7-1-14.1-0.9-21,0.3l-10.4-8.6L195.9,2c-2.9-2.4-7.3-2-9.7,0.9c-0.8,0.9-1.3,2.1-1.5,3.3l-3.8,22.2l-3.8,22.2
	c-0.3,1.9,0.2,3.9,1.4,5.4c-18.9,31.3-8.9,71.9,22.4,90.8s71.9,8.9,90.8-22.4C304.9,102.5,304.4,75.2,290.5,53.9L290.5,53.9z"/>
<path class="st0" d="M271.6,11.8l-21,17.4l0,0c-1.5,1.2-1.7,3.4-0.5,4.8c0.4,0.5,0.9,0.8,1.4,1l25.6,9.5c1.8,0.7,3.7-0.2,4.4-2
	c0.2-0.6,0.3-1.2,0.2-1.8l-4.6-26.9c-0.2-1.2-1-2.2-2.2-2.6c-0.4-0.1-0.8-0.2-1.2-0.2C273,11,272.2,11.3,271.6,11.8z"/>
<path class="st0" d="M193,11.3c-1.2,0.4-2,1.4-2.2,2.6l-4.6,26.9c-0.3,1.9,0.9,3.6,2.8,3.9c0.6,0.1,1.2,0,1.8-0.2l25.6-9.5
	c1.8-0.7,2.7-2.6,2-4.4c-0.2-0.6-0.6-1.1-1-1.4l-21-17.4c-0.6-0.5-1.4-0.8-2.2-0.8C193.8,11,193.3,11.1,193,11.3z"/>
<circle class="st0" cx="235.1" cy="99.3" r="9.2"/>
<ellipse class="st2" cx="235.1" cy="94.7" rx="6.2" ry="2.3"/>
<path class="st3" d="M235.5,119.3L235.5,119.3c-2.3,0-4.2-1.9-4.2-4.2v0v-10.4l0,0h8.5l0,0V115C239.7,117.4,237.8,119.3,235.5,119.3
	C235.5,119.3,235.5,119.3,235.5,119.3z"/>
<path class="st2" d="M234.6,0c0.4,0.9,0.9,1.8,1.3,2.8c4.8,11.1,6.4,23.4,4.7,35.3c-0.9-1.3-1.8-2.6-2.7-3.9
	C239.8,22.8,238.7,10.9,234.6,0z"/>
<path class="st2" d="M227.7,8.5c0.4,0.9,0.9,1.8,1.3,2.8c4.8,11.1,6.4,23.4,4.7,35.3c-0.9-1.3-1.8-2.6-2.7-3.9
	C232.9,31.2,231.8,19.4,227.7,8.5z"/>
<path class="st6" d="M206.3,39.9l1-12.4l1-12.4c0.2-2.1,2-3.7,4.1-3.5c0.7,0.1,1.3,0.3,1.9,0.7l10.2,7l7.5,5.1
	c1.8-2.1,5-2.4,7.2-0.6c0.2,0.2,0.4,0.4,0.6,0.6l7.5-5.1l10.2-7c1.7-1.2,4.1-0.8,5.3,1c0.4,0.6,0.6,1.2,0.7,1.9l1,12.4l1,12.4
	c0.2,2.1-1.4,3.9-3.5,4.1c-0.7,0.1-1.3-0.1-1.9-0.4l-11.2-5.4l-9.2-4.4c-2,2-5.2,2-7.2,0c0,0,0,0,0,0l-9.2,4.4l-11.2,5.4
	c-1.9,0.9-4.2,0.1-5.1-1.8C206.4,41.3,206.3,40.6,206.3,39.9z"/>
<path class="st0" d="M245.1,89.3c0,1.3,1,0,2.3,0s2.3,1.3,2.3,0c0-1.3-1-2.3-2.3-2.3C246.1,87,245.1,88,245.1,89.3z"/>
<path class="st0" d="M225.1,89.3c0,1.3-1,0-2.3,0s-2.3,1.3-2.3,0c0-1.3,1-2.3,2.3-2.3C224.1,87,225.1,88,225.1,89.3z"/>
<polygon class="st5" points="481,263.5 481,248.8 407.7,248.8 407.7,249.7 407.7,263.5 407.7,381.7 407.7,396.3 422.4,396.3 
	481,396.3 481,381.7 422.4,381.7 422.4,263.5 "/>
<path class="st4" d="M516.8,248.8v147.5h73.3V248.8H516.8z M575.4,381.7h-44V263.5h44V381.7z"/>
<polygon class="st4" points="313.3,381.7 313.3,249.7 298.7,249.7 298.7,381.7 298.7,396.3 313.3,396.3 372,396.3 372,381.7 "/>
<polygon points="265.7,263.5 265.7,248.8 192.4,248.8 192.4,249.7 192.4,263.5 192.4,314.8 192.4,329.4 192.4,381.7 192.4,396.3 
	207,396.3 265.7,396.3 265.7,381.7 207,381.7 207,329.4 265.7,329.4 265.7,314.8 207,314.8 207,263.5 "/>
<polygon class="st4" points="839.4,263.5 839.4,248.8 766.1,248.8 766.1,249.7 766.1,263.5 766.1,314.8 766.1,329.4 766.1,381.7 
	766.1,396.3 780.7,396.3 839.4,396.3 839.4,381.7 780.7,381.7 780.7,329.4 839.4,329.4 839.4,314.8 780.7,314.8 780.7,263.5 "/>
<polygon points="142.9,249.7 142.9,370.9 104.2,332.2 104.1,332.3 104.1,332.2 64.5,371.8 64.5,249.2 49.9,249.2 49.9,395.9 
	64.5,395.9 64.5,392.5 104.1,352.9 142.9,391.6 142.9,396.3 157.6,396.3 157.6,249.7 "/>
<polygon class="st5" points="717.5,249.7 717.5,253.1 677.9,292.7 639.1,254 639.1,249.2 624.5,249.2 624.5,395.9 639.1,395.9 
	639.1,274.7 677.8,313.4 677.9,313.3 678,313.3 717.5,273.8 717.5,396.3 732.2,396.3 732.2,249.7 "/>
<circle class="st4" cx="335.1" cy="150.4" r="9"/>
<circle class="st4" cx="113.1" cy="250.4" r="9"/>
<circle class="st4" cx="291.1" cy="450.4" r="9"/>
<circle class="st4" cx="517.1" cy="177.4" r="9"/>
<circle class="st4" cx="782.1" cy="442.4" r="9"/>
<circle class="st4" cx="791.1" cy="206.4" r="9"/>
<circle class="st4" cx="677.1" cy="368.4" r="9"/>
</svg>
